<svg width="24" height="19" viewBox="0 0 24 19" fill="none" xmlns="http://www.w3.org/2000/svg">
<path d="M3 0.5C2.20435 0.5 1.44129 0.81607 0.87868 1.37868C0.316071 1.94129 0 2.70435 0 3.5L0 15.515C0.00396529 16.308 0.321786 17.0673 0.883965 17.6266C1.44615 18.186 2.20694 18.5 3 18.5H11.25C11.4489 18.5 11.6397 18.421 11.7803 18.2803C11.921 18.1397 12 17.9489 12 17.75C12 17.5511 11.921 17.3603 11.7803 17.2197C11.6397 17.079 11.4489 17 11.25 17H3C2.66982 17 2.34884 16.8911 2.08686 16.6902C1.82487 16.4892 1.63652 16.2074 1.551 15.8885L10.011 10.682L12 11.8745L22.5 5.5745V10.25C22.5 10.4489 22.579 10.6397 22.7197 10.7803C22.8603 10.921 23.0511 11 23.25 11C23.4489 11 23.6397 10.921 23.7803 10.7803C23.921 10.6397 24 10.4489 24 10.25V3.5C24 2.70435 23.6839 1.94129 23.1213 1.37868C22.5587 0.81607 21.7956 0.5 21 0.5H3ZM8.562 9.812L1.5 14.1575V5.5745L8.562 9.812ZM1.5 3.8255V3.5C1.5 3.10218 1.65804 2.72064 1.93934 2.43934C2.22064 2.15804 2.60218 2 3 2H21C21.3978 2 21.7794 2.15804 22.0607 2.43934C22.342 2.72064 22.5 3.10218 22.5 3.5V3.8255L12 10.1255L1.5 3.8255Z" fill="#475AFF" fill-opacity="0.65"/>
</svg>
